<svg xmlns="http://www.w3.org/2000/svg" viewBox="0 0 77.61 18.01"><defs><style>.cls-1{fill:#fff;}</style></defs><title>logo</title><g id="レイヤー_2" data-name="レイヤー 2"><g id="レイヤー_2-2" data-name="レイヤー 2"><path class="cls-1" d="M11.25,2.35V13.4c0,1.14,0,2.29.07,2.85H8.55l-.12-1.5h0a3.64,3.64,0,0,1-3.3,1.73c-2.32,0-4.42-1.82-4.42-4.87A4.72,4.72,0,0,1,5.32,6.52,3.34,3.34,0,0,1,8.11,7.63h0V2.35Zm-3.1,8.56a3.23,3.23,0,0,0,0-.53,2,2,0,0,0-2-1.55c-1.51,0-2.31,1.16-2.31,2.65A2.29,2.29,0,0,0,6.11,14a2,2,0,0,0,2-1.61,4,4,0,0,0,.05-.7Z" transform="translate(-0.67 -2.35)"/><path class="cls-1" d="M19.59,16.25l-.19-.94h-.07a3.75,3.75,0,0,1-2.91,1.17,3,3,0,0,1-3.27-2.91c0-2.47,2.23-3.69,6-3.68V9.8c0-.42-.22-1.2-1.87-1.2a6.14,6.14,0,0,0-2.85.76l-.57-1.95a8.24,8.24,0,0,1,3.94-.89c3.25,0,4.43,1.82,4.43,4.15v3.24a12.75,12.75,0,0,0,.16,2.34Zm-.36-4.45c-1.79,0-3,.39-3,1.46,0,.71.49,1.09,1.26,1.09a1.81,1.81,0,0,0,1.69-1.19,1.8,1.8,0,0,0,.05-.52Z" transform="translate(-0.67 -2.35)"/><path class="cls-1" d="M24.75,9.85c0-1.24,0-2.26-.07-3.1h2.68l.14,1.39h.07a3.68,3.68,0,0,1,3.14-1.62c2,0,3.7,1.24,3.7,4.26v5.47h-3.1v-5c0-1.36-.52-2.22-1.69-2.22a1.79,1.79,0,0,0-1.68,1.2,1.84,1.84,0,0,0-.09.68v5.38h-3.1Z" transform="translate(-0.67 -2.35)"/><path class="cls-1" d="M46.7,6.75c0,.53-.08,1.27-.08,2.77v5.25a5.57,5.57,0,0,1-1.54,4.39A6.23,6.23,0,0,1,41,20.37a8.1,8.1,0,0,1-3.76-.82l.63-2.34A6.39,6.39,0,0,0,40.9,18a2.41,2.41,0,0,0,2.69-2.57v-.62h0a3.44,3.44,0,0,1-2.85,1.32,4.32,4.32,0,0,1-4.37-4.63,4.73,4.73,0,0,1,4.68-5,3.16,3.16,0,0,1,2.88,1.42h0L44,6.75Zm-3.17,4a2.74,2.74,0,0,0,0-.5,1.85,1.85,0,0,0-1.85-1.48c-1.13,0-2.15.9-2.15,2.68a2.25,2.25,0,0,0,2.16,2.47,1.86,1.86,0,0,0,1.81-1.36,4.18,4.18,0,0,0,.07-.8Z" transform="translate(-0.67 -2.35)"/><path class="cls-1" d="M58.79,13.16c0,1.31,0,2.34.08,3.09H56.18l-.13-1.45H56a3.59,3.59,0,0,1-3.22,1.68c-2,0-3.6-1.16-3.6-4.2V6.75h3.09v5c0,1.44.51,2.28,1.67,2.28a1.78,1.78,0,0,0,1.68-1.17,1.4,1.4,0,0,0,.1-.56V6.75h3.09Z" transform="translate(-0.67 -2.35)"/><path class="cls-1" d="M61.35,10c0-1.54,0-2.42-.07-3.22h2.64L64,8.63h.08a3,3,0,0,1,2.79-2.11,2.32,2.32,0,0,1,.66.06V9.44a4.11,4.11,0,0,0-.88-.1,2,2,0,0,0-2.19,1.55,5.12,5.12,0,0,0,0,.56v4.8h-3.1Z" transform="translate(-0.67 -2.35)"/><path class="cls-1" d="M72.48,4.07a1.66,1.66,0,1,1-1.65-1.51A1.52,1.52,0,0,1,72.48,4.07Zm-3.2,12.18V6.75h3.09v9.5Z" transform="translate(-0.67 -2.35)"/><path class="cls-1" d="M74.62,14.66a1.83,1.83,0,0,1,3.66,0,1.83,1.83,0,0,1-3.66,0Z" transform="translate(-0.67 -2.35)"/></g></g></svg>